#!OML:ASF E:\motion texture\Top Level 1\Subject 1\Session 1\male.ASF
:FULLY-SPECIFIED
:DEGREES
225
root 0.0311436 17.92 4.05395 492.951 -74.0182 -492.242
lowerback 4.98299 2.87539 10.9867
upperback -0.525509 4.46116 3.85728
thorax -2.82275 2.00029 -2.4081
lowerneck -18.5962 -3.24984 -4.93061
upperneck 13.6813 -4.08595 5.37965
head 7.47038 -1.70871 2.09215
rclavicle 8.08495e-015 6.77856e-014
rhumerus 1.92796 31.8888 -89.4196
rradius 72.5254
rwrist -8.19078
rhand -12.0604 -9.47737
rfingers 7.12502
rthumb 13.9988 -38.986
lclavicle 8.08495e-015 6.77856e-014
lhumerus -50.9983 -1.90971 76.6003
lradius 35.6277
lwrist -8.37592
lhand -6.75254 4.49377
lfingers 7.12502
lthumb 19.1088 33.5751
rfemur -8.43516 6.031 40.6726
rtibia 26.3242
rfoot -370.888 -3.92762
rtoes 22.1569
lfemur -68.4997 13.0261 -4.40954
ltibia 60.4383
lfoot 545.816 7.93108
ltoes 2.43919
226
root -0.11417 17.9502 4.05196 493.634 -73.7741 -492.998
lowerback 5.0417 3.09747 11.2186
upperback -0.510006 4.77512 3.77803
thorax -2.77719 2.15425 -2.63403
lowerneck -18.525 -3.38004 -5.07903
upperneck 13.6655 -4.24108 5.45971
head 7.46675 -1.78435 2.1244
rclavicle 8.2154e-015 9.14409e-015
rhumerus 3.21784 32.0008 -88.8113
rradius 72.3481
rwrist -8.07551
rhand -12.0818 -9.38135
rfingers 7.12502
rthumb 13.9781 -38.8914
lclavicle 8.2154e-015 9.14409e-015
lhumerus -51.7895 -1.95658 75.8601
lradius 36.1925
lwrist -7.91861
lhand -6.61759 4.48514
lfingers 7.12502
lthumb 19.2386 33.5535
rfemur -7.56354 5.93465 40.6556
rtibia 25.8635
rfoot -370.937 -3.73917
rtoes 22.3159
lfemur -71.3501 13.1666 -4.76427
ltibia 59.3565
lfoot 545.489 8.08533
ltoes 2.46641
227
root -0.260137 17.979 4.04964 494.16 -73.5518 -493.598
lowerback 5.1255 3.29323 11.4349
upperback -0.511094 5.05892 3.71593
thorax -2.76674 2.29117 -2.83396
lowerneck -18.4594 -3.50091 -5.23139
upperneck 13.6655 -4.38231 5.53494
head 7.46878 -1.85388 2.15738
rclavicle 2.19315e-014 -2.28602e-014
rhumerus 4.40437 32.079 -88.2405
rradius 72.1662
rwrist -7.86414
rhand -12.0773 -9.29757
rfingers 7.12502
rthumb 13.9825 -38.8073
lclavicle 2.19315e-014 -2.28602e-014
lhumerus -52.5598 -1.97174 75.136
lradius 36.7248
lwrist -7.51813
lhand -6.46323 4.47571
lfingers 7.12502
lthumb 19.387 33.5293
rfemur -6.70629 5.76456 40.6293
rtibia 25.4126
rfoot -370.983 -3.56153
rtoes 22.468
lfemur -74.1005 13.2559 -5.11589
ltibia 58.4634
lfoot 545.238 8.1689
ltoes 2.51053
228
root -0.406175 18.0062 4.04706 494.589 -73.3664 -494.122
lowerback 5.25229 3.46344 11.6136
upperback -0.518904 5.31458 3.66308
thorax -2.7929 2.41267 -3.00588
lowerneck -18.4126 -3.61119 -5.38289
upperneck 13.6813 -4.50861 5.60587
head 7.4786 -1.91625 2.19048
rclavicle -1.64914e-014 -1.96797e-014
rhumerus 5.4958 32.1283 -87.712
rradius 71.9846
rwrist -7.62789
rhand -12.0644 -9.23676
rfingers 7.12502
rthumb 13.9949 -38.7457
lclavicle -1.64914e-014 -1.96797e-014
lhumerus -53.291 -1.95749 74.4317
lradius 37.2085
lwrist -7.18132
lhand -6.34579 4.45882
lfingers 7.12502
lthumb 19.4999 33.501
rfemur -5.84611 5.52242 40.5637
rtibia 24.9718
rfoot -371.022 -3.39001
rtoes 22.5797
lfemur -76.7153 13.288 -5.48717
ltibia 57.7637
lfoot 545.074 8.20488
ltoes 2.59527
229
root -0.552302 18.0318 4.04411 494.977 -73.2115 -494.638
lowerback 5.43114 3.61254 11.7442
upperback -0.529044 5.54851 3.61979
thorax -2.85718 2.52207 -3.14544
lowerneck -18.3733 -3.71268 -5.5296
upperneck 13.7078 -4.62159 5.66123
head 7.49213 -1.9733 2.21921
rclavicle -2.25667e-014 -1.51076e-014
rhumerus 6.47651 32.1424 -87.2407
rradius 71.809
rwrist -7.41649
rhand -12.0468 -9.20184
rfingers 7.12502
rthumb 14.0119 -38.7096
lclavicle -2.25667e-014 -1.51076e-014
lhumerus -53.9782 -1.9207 73.7591
lradius 37.6269
lwrist -6.88909
lhand -6.28934 4.4279
lfingers 7.12502
lthumb 19.5542 33.4646
rfemur -4.97402 5.23038 40.4539
rtibia 24.5563
rfoot -371.05 -3.22852
rtoes 22.567
lfemur -79.1627 13.2824 -5.88298
ltibia 57.2589
lfoot 545.005 8.20969
ltoes 2.69324
230
root -0.698067 18.0557 4.04084 495.351 -73.0771 -495.17
lowerback 5.6612 3.74429 11.8297
upperback -0.536149 5.76505 3.58652
thorax -2.95344 2.62189 -3.25421
lowerneck -18.3532 -3.80075 -5.6601
upperneck 13.7407 -4.71512 5.69081
head 7.50905 -2.02223 2.23895
rclavicle 2.07497e-014 8.17999e-014
rhumerus 7.34508 32.1279 -86.8302
rradius 71.6483
rwrist -7.26221
rhand -12.0459 -9.18999
rfingers 7.12502
rthumb 14.0128 -38.6977
lclavicle 2.07497e-014 8.17999e-014
lhumerus -54.6141 -1.85959 73.1256
lradius 37.9826
lwrist -6.64231
lhand -6.33111 4.37712
lfingers 7.12502
lthumb 19.514 33.4178
rfemur -4.09853 4.90846 40.3031
rtibia 24.1813
rfoot -371.069 -3.07162
rtoes 22.4391
lfemur -81.4346 13.2561 -6.3039
ltibia 56.9352
lfoot 545.008 8.20138
ltoes 2.76189
